REM DIRINDEX 1\2,1\4,1\3\5,1\3\6,1\3\7
REM DIRNAME cjc083,folder01,folder02,folder03,folder04,folder05,folder06
TITLE ""
FILE "CD1Track24.mp3" MP3
  TRACK 01 AUDIO
    TITLE "0:"
    INDEX 01 00:00:00
  TRACK 02 AUDIO
    TITLE "5:cjc083_0505"
    INDEX 01 00:00:27
  TRACK 03 AUDIO
    TITLE "0:"
    INDEX 01 00:02:06
  TRACK 04 AUDIO
    TITLE "6:cjc083_0506"
    INDEX 01 00:02:49
  TRACK 05 AUDIO
    TITLE "0:"
    INDEX 01 00:04:38
  TRACK 06 AUDIO
    TITLE "5:cjc083_0507"
    INDEX 01 00:05:05
  TRACK 07 AUDIO
    TITLE "0:"
    INDEX 01 00:06:20
  TRACK 08 AUDIO
    TITLE "6:cjc083_0508"
    INDEX 01 00:06:61
  TRACK 09 AUDIO
    TITLE "0:"
    INDEX 01 00:08:09
  TRACK 10 AUDIO
    TITLE "5:cjc083_0509"
    INDEX 01 00:08:50
  TRACK 11 AUDIO
    TITLE "0:"
    INDEX 01 00:11:27
  TRACK 12 AUDIO
    TITLE "6:cjc083_0510"
    INDEX 01 00:11:68
  TRACK 13 AUDIO
    TITLE "0:"
    INDEX 01 00:16:51
  TRACK 14 AUDIO
    TITLE "5:cjc083_0511"
    INDEX 01 00:17:20
  TRACK 15 AUDIO
    TITLE "0:"
    INDEX 01 00:18:50
  TRACK 16 AUDIO
    TITLE "6:cjc083_0512"
    INDEX 01 00:19:16
  TRACK 17 AUDIO
    TITLE "0:"
    INDEX 01 00:20:71
  TRACK 18 AUDIO
    TITLE "5:cjc083_0513"
    INDEX 01 00:21:41
  TRACK 19 AUDIO
    TITLE "0:"
    INDEX 01 00:22:60
  TRACK 20 AUDIO
    TITLE "6:cjc083_0514"
    INDEX 01 00:23:24
  TRACK 21 AUDIO
    TITLE "0:"
    INDEX 01 00:24:47
  TRACK 22 AUDIO
    TITLE "5:cjc083_0515"
    INDEX 01 00:25:19
  TRACK 23 AUDIO
    TITLE "0:"
    INDEX 01 00:26:44
  TRACK 24 AUDIO
    TITLE "6:cjc083_0516"
    INDEX 01 00:27:14
  TRACK 25 AUDIO
    TITLE "0:"
    INDEX 01 00:28:59
  TRACK 26 AUDIO
    TITLE "5:cjc083_0517"
    INDEX 01 00:29:23
  TRACK 27 AUDIO
    TITLE "0:"
    INDEX 01 00:30:44
  TRACK 28 AUDIO
    TITLE "6:cjc083_0518"
    INDEX 01 00:31:18
  TRACK 29 AUDIO
    TITLE "0:"
    INDEX 01 00:32:45
  TRACK 30 AUDIO
    TITLE "5:cjc083_0519"
    INDEX 01 00:33:19
  TRACK 31 AUDIO
    TITLE "0:"
    INDEX 01 00:34:47
  TRACK 32 AUDIO
    TITLE "6:cjc083_0520"
    INDEX 01 00:35:19
  TRACK 33 AUDIO
    TITLE "0:"
    INDEX 01 00:37:50
  TRACK 34 AUDIO
    TITLE "5:cjc083_0521"
    INDEX 01 00:38:16
  TRACK 35 AUDIO
    TITLE "0:"
    INDEX 01 00:39:62
  TRACK 36 AUDIO
    TITLE "6:cjc083_0522"
    INDEX 01 00:40:34
  TRACK 37 AUDIO
    TITLE "0:"
    INDEX 01 00:42:14
  TRACK 38 AUDIO
    TITLE "5:cjc083_0523"
    INDEX 01 00:42:53
  TRACK 39 AUDIO
    TITLE "0:"
    INDEX 01 00:44:20
  TRACK 40 AUDIO
    TITLE "6:cjc083_0524"
    INDEX 01 00:44:61
  TRACK 41 AUDIO
    TITLE "0:"
    INDEX 01 00:46:02
  TRACK 42 AUDIO
    TITLE "5:cjc083_0525"
    INDEX 01 00:46:43
  TRACK 43 AUDIO
    TITLE "0:"
    INDEX 01 00:48:02
  TRACK 44 AUDIO
    TITLE "6:cjc083_0526"
    INDEX 01 00:48:42
  TRACK 45 AUDIO
    TITLE "0:"
    INDEX 01 00:49:65
  TRACK 46 AUDIO
    TITLE "5:cjc083_0527"
    INDEX 01 00:50:29
  TRACK 47 AUDIO
    TITLE "0:"
    INDEX 01 00:51:38
  TRACK 48 AUDIO
    TITLE "6:cjc083_0528"
    INDEX 01 00:52:00
  TRACK 49 AUDIO
    TITLE "0:"
    INDEX 01 00:53:29
  TRACK 50 AUDIO
    TITLE "5:cjc083_0529"
    INDEX 01 00:53:68
  TRACK 51 AUDIO
    TITLE "0:"
    INDEX 01 00:55:03
  TRACK 52 AUDIO
    TITLE "6:cjc083_0530"
    INDEX 01 00:55:44
  TRACK 53 AUDIO
    TITLE "0:"
    INDEX 01 00:56:53
  TRACK 54 AUDIO
    TITLE "5:cjc083_0531"
    INDEX 01 00:57:25
  TRACK 55 AUDIO
    TITLE "0:"
    INDEX 01 00:58:48
  TRACK 56 AUDIO
    TITLE "6:cjc083_0532"
    INDEX 01 00:59:18
  TRACK 57 AUDIO
    TITLE "0:"
    INDEX 01 01:01:29
  TRACK 58 AUDIO
    TITLE "7:cjc083_0533"
    INDEX 01 01:02:65
  TRACK 59 AUDIO
    TITLE "0:"
    INDEX 01 01:13:14
